<svg
	xmlns="http://www.w3.org/2000/svg"
	xmlns:xlink="http://www.w3.org/1999/xlink" viewBox="0 0 32 32">
	<defs>
        <!-- The clipping here is done do achieve an inner stroke, so it doesn't clip -->
        <path id="hexagon" d="M17.5,6.17,14.6,7.78l2,3.42a3.86,3.86,0,0,1,0,3.89A3.72,3.72,0,0,1,13.43,17H8v5l9.57,5.27h0L27,22V11.44Z"/>
        <clipPath id="hexagon-clip">
            <use xlink:href="#hexagon"/>
        </clipPath>
        <path id="triangle" d="M8,4.74l-4.78,8A.85.85,0,0,0,3.87,14h9.56a.85.85,0,0,0,.62-1.26L9.28,4.66a.65.65,0,0,0-.57-.32A.81.81,0,0,0,8,4.74Z"/>
        <clipPath id="triangle-clip">
            <use xlink:href="#triangle"/>
        </clipPath>
	</defs>
	<g id="Layer_2" data-name="Layer 2">
		<g id="_32x32" data-name="32x32" transform="scale(1.3, 1.3) translate(1, 0)" transform-origin="center">
            <use xlink:href="#hexagon" stroke="var(--vscode-foreground)" fill="none" stroke-width="4" clip-path="url(#hexagon-clip)"/>
            <use xlink:href="#triangle" stroke="var(--vscode-foreground)" fill="none" stroke-width="4" clip-path="url(#triangle-clip)"/>
		</g>
	</g>
</svg>