<?xml version="1.0" encoding="UTF-8" standalone="no"?>
<svg
   xmlns:dc="http://purl.org/dc/elements/1.1/"
   xmlns:cc="http://creativecommons.org/ns#"
   xmlns:rdf="http://www.w3.org/1999/02/22-rdf-syntax-ns#"
   xmlns:svg="http://www.w3.org/2000/svg"
   xmlns="http://www.w3.org/2000/svg"
   xmlns:sodipodi="http://sodipodi.sourceforge.net/DTD/sodipodi-0.dtd"
   xmlns:inkscape="http://www.inkscape.org/namespaces/inkscape"
   width="33.104164mm"
   height="33.104164mm"
   viewBox="0 0 33.104164 33.104164"
   version="1.1"
   id="svg8"
   sodipodi:docname="logo.svg"
   inkscape:version="0.92.2 2405546, 2018-03-11">
  <sodipodi:namedview
     pagecolor="#ffffff"
     bordercolor="#666666"
     borderopacity="1"
     objecttolerance="10"
     gridtolerance="10"
     guidetolerance="10"
     inkscape:pageopacity="0"
     inkscape:pageshadow="2"
     inkscape:window-width="1920"
     inkscape:window-height="1023"
     id="namedview15"
     showgrid="false"
     fit-margin-top="2"
     fit-margin-left="2"
     fit-margin-right="2"
     fit-margin-bottom="2"
     inkscape:zoom="0.2102413"
     inkscape:cx="26.065257"
     inkscape:cy="173.10447"
     inkscape:window-x="0"
     inkscape:window-y="0"
     inkscape:window-maximized="1"
     inkscape:current-layer="svg8" />
  <defs
     id="defs2" />
  <metadata
     id="metadata5">
    <rdf:RDF>
      <cc:Work
         rdf:about="">
        <dc:format>image/svg+xml</dc:format>
        <dc:type
           rdf:resource="http://purl.org/dc/dcmitype/StillImage" />
        <dc:title></dc:title>
      </cc:Work>
    </rdf:RDF>
  </metadata>
  <g
     id="layer1"
     transform="translate(-100.62052,-161.19639)">
    <g
       id="g4644">
      <circle
         style="fill:#ff0c00;fill-opacity:1;stroke:none;stroke-width:0.27438271;stroke-linecap:round;stroke-miterlimit:3.20000005;stroke-dasharray:none;stroke-opacity:1"
         id="path4626"
         cx="117.1726"
         cy="177.74847"
         r="14.552083" />
      <path
         id="path4529-3"
         d="m 113.45576,187.35439 c -4.00183,-1.35911 -7.14347,-2.4776 -6.98143,-2.48555 0.16204,-0.008 0.88684,0.0979 1.61067,0.23514 1.62799,0.30874 12.42485,1.86708 12.93596,1.86708 0.31338,0 0.3723,-1.56791 0.3723,-9.90797 v -9.90798 l 1.78594,0.79919 c 0.98226,0.43956 2.17289,0.96716 2.64583,1.17245 l 0.8599,0.37325 -10e-4,9.06626 -0.001,9.06626 -2.66548,1.12448 c -1.46602,0.61846 -2.80504,1.11188 -2.97562,1.09648 -0.17035,-0.0154 -3.58413,-1.13999 -7.58595,-2.49909 z"
         style="fill:#2c0a00;fill-opacity:1;stroke-width:0.26458338"
         inkscape:connector-curvature="0" />
      <path
         style="fill:#ffc705;fill-opacity:1;fill-rule:evenodd;stroke:none;stroke-width:0.98457015px;stroke-linecap:butt;stroke-linejoin:miter;stroke-opacity:1"
         d="m 457.0625,631.76758 -54.02734,10.30469 0.13476,55.08984 52.9707,7.67969 z"
         transform="scale(0.26458333)"
         id="path4628"
         inkscape:connector-curvature="0" />
      <g
         transform="matrix(0.76924869,0,0,0.76924869,31.196753,38.490551)"
         id="g4568"
         style="font-style:normal;font-variant:normal;font-weight:300;font-stretch:normal;font-size:medium;line-height:125%;font-family:'Josefin Slab';-inkscape-font-specification:'Josefin Slab, Light';text-align:start;letter-spacing:0px;word-spacing:0px;writing-mode:lr-tb;text-anchor:start;fill:#000000;fill-opacity:1;stroke:none;stroke-width:0.26458332px;stroke-linecap:butt;stroke-linejoin:miter;stroke-opacity:1">
        <g
           transform="matrix(1.3618778,-0.00190311,0.00190311,1.3618778,-56.3759,-42.247678)"
           id="g4560">
          <path
             d="m 114.44885,168.5912 c 0,0 0.42101,0.0639 0.42101,0.0639 0,0 -0.0981,-11.07384 -0.0981,-11.07384 0,0 -0.42928,0.0739 -0.42928,0.0739 0,0 0.10633,10.93604 0.10633,10.93604"
             style="font-style:normal;font-variant:normal;font-weight:normal;font-stretch:normal;font-family:'URW Gothic';-inkscape-font-specification:'URW Gothic';fill:#3f0b0b;fill-opacity:1;stroke:none;stroke-width:0.26458332px"
             id="path4550"
             inkscape:connector-curvature="0" />
          <path
             d="m 115.3702,168.73114 c 0,0 0.46877,0.0712 0.46877,0.0712 0,0 0.64924,-3.74921 0.64924,-3.74921 0,0 2.33453,0.10404 2.33453,0.10404 0,0 0.7856,4.21768 0.7856,4.21768 0,0 0.61419,0.0933 0.61419,0.0933 0,0 -2.33772,-12.42243 -2.33772,-12.42243 0,0 -0.57168,0.0984 -0.57168,0.0984 0,0 -1.94293,11.58708 -1.94293,11.58708 m 1.29193,-4.72196 c 0,0 0.94246,-5.52293 0.94246,-5.52293 0,0 1.00842,5.55293 1.00842,5.55293 0,0 -1.95088,-0.03 -1.95088,-0.03"
             style="font-style:normal;font-variant:normal;font-weight:normal;font-stretch:normal;font-family:'URW Gothic';-inkscape-font-specification:'URW Gothic';fill:#3f0b0b;fill-opacity:1;stroke:none;stroke-width:0.26458332px"
             id="path4552"
             inkscape:connector-curvature="0" />
          <path
             d="m 123.3388,164.85678 c 1.32778,-0.24419 2.09101,-1.75138 2.12452,-4.37678 0.0234,-1.83255 -0.35004,-3.18187 -1.0468,-3.85026 -0.43477,-0.41871 -1.0214,-0.5321 -1.90603,-0.3799 0,0 -1.55757,0.26798 -1.55757,0.26798 0,0 -0.0469,13.05412 -0.0469,13.05412 0,0 0.59857,0.0909 0.59857,0.0909 0,0 0.0581,-12.01975 0.0581,-12.01975 0,0 0.89534,-0.12713 0.89534,-0.12713 0.69765,-0.0991 1.17443,-0.0128 1.54591,0.30408 0.47271,0.40824 0.73351,1.35888 0.71874,2.67011 -0.0184,1.63411 -0.394,2.66212 -1.08922,3.02473 -0.32086,0.16751 -0.75172,0.2392 -1.46695,0.23414 0,0 2.18298,6.34591 2.18298,6.34591 0,0 0.88145,0.13388 0.88145,0.13388 0,0 -1.8921,-5.37204 -1.8921,-5.37204"
             style="font-style:normal;font-variant:normal;font-weight:normal;font-stretch:normal;font-family:'URW Gothic';-inkscape-font-specification:'URW Gothic';fill:#3f0b0b;fill-opacity:1;stroke:none;stroke-width:0.26458332px"
             id="path4554"
             inkscape:connector-curvature="0" />
        </g>
      </g>
    </g>
  </g>
</svg>
